<?xml version="1.0" encoding="utf-8"?>
<!-- Generator: Adobe Illustrator 22.1.0, SVG Export Plug-In . SVG Version: 6.00 Build 0)  -->
<svg version="1.1" id="Layer_2" xmlns="http://www.w3.org/2000/svg" xmlns:xlink="http://www.w3.org/1999/xlink" x="0px" y="0px"
	 viewBox="0 0 100 100" style="enable-background:new 0 0 100 100;" xml:space="preserve">
<style type="text/css">
	.st0{fill:#FFFFFF;}
</style>
<path class="st0" d="M31.5,56.1h38c2.1,0,3.9,1.7,3.9,3.9v0c0,2.1-1.7,3.9-3.9,3.9h-38c-2.1,0-3.9-1.7-3.9-3.9v0
	C27.6,57.8,29.4,56.1,31.5,56.1z"/>
<path class="st0" d="M73.4,54.3H27.6c-1.5,0-2.6-1.2-2.6-2.6v0c0-1.5,1.2-2.6,2.6-2.6h45.7c1.5,0,2.6,1.2,2.6,2.6v0
	C76,53.1,74.8,54.3,73.4,54.3z"/>
<path class="st0" d="M50.4,47.3c0,0,20,0,21.3,0s4-3.1-2.7-7.3s-18.6-4.2-18.6-4.2s-12,0-18.6,4.2s-4,7.3-2.7,7.3
	S50.4,47.3,50.4,47.3z"/>
</svg>
